<svg width="24" height="24" viewBox="0 0 24 24" fill="none" xmlns="http://www.w3.org/2000/svg">
<rect width="24" height="24" fill="#E5E5E5"/>
<g id="Task" clip-path="url(#clip0_0_1)">
<rect width="375" height="812" transform="translate(-49 -733)" fill="white"/>
<g id="Group 682">
<g id="Rectangle 637" filter="url(#filter0_d_0_1)">
<rect x="-20" y="-25" width="316" height="74" rx="14" fill="white"/>
</g>
<g id="Group 681">
<g id="Iconly/Curved/Home">
<g id="Home">
<path id="Stroke 2" fill-rule="evenodd" clip-rule="evenodd" d="M2.40002 13.713C2.40002 8.082 3.01402 8.475 6.31902 5.41C7.76502 4.246 10.015 2 11.958 2C13.9 2 16.195 4.235 17.654 5.41C20.959 8.475 21.572 8.082 21.572 13.713C21.572 22 19.613 22 11.986 22C4.35903 22 2.40002 22 2.40002 13.713Z" stroke="#C6CEDD" stroke-width="1.5" stroke-linecap="round" stroke-linejoin="round"/>
<path id="Stroke 1" d="M9.07874 16.1357H14.8937" stroke="#C6CEDD" stroke-width="1.5" stroke-linecap="round" stroke-linejoin="round"/>
</g>
</g>
</g>
</g>
</g>
<defs>
<filter id="filter0_d_0_1" x="-36" y="-31" width="342" height="100" filterUnits="userSpaceOnUse" color-interpolation-filters="sRGB">
<feFlood flood-opacity="0" result="BackgroundImageFix"/>
<feColorMatrix in="SourceAlpha" type="matrix" values="0 0 0 0 0 0 0 0 0 0 0 0 0 0 0 0 0 0 127 0" result="hardAlpha"/>
<feOffset dx="-3" dy="7"/>
<feGaussianBlur stdDeviation="6.5"/>
<feColorMatrix type="matrix" values="0 0 0 0 0.945833 0 0 0 0 0.9675 0 0 0 0 1 0 0 0 1 0"/>
<feBlend mode="normal" in2="BackgroundImageFix" result="effect1_dropShadow_0_1"/>
<feBlend mode="normal" in="SourceGraphic" in2="effect1_dropShadow_0_1" result="shape"/>
</filter>
<clipPath id="clip0_0_1">
<rect width="375" height="812" fill="white" transform="translate(-49 -733)"/>
</clipPath>
</defs>
</svg>
