<svg width="20" height="20" viewBox="0 0 20 20" fill="none" xmlns="http://www.w3.org/2000/svg">
<g id="Iconly/Curved/Edit Square">
<g id="Edit Square">
<path id="Stroke 1" d="M10.0002 2.29175C4.21937 2.29175 2.29187 4.21925 2.29187 10.0001C2.29187 15.7809 4.21937 17.7084 10.0002 17.7084C15.781 17.7084 17.7085 15.7809 17.7085 10.0001" stroke="#130F26" stroke-width="1.25" stroke-linecap="round" stroke-linejoin="round"/>
<path id="Stroke 3" fill-rule="evenodd" clip-rule="evenodd" d="M16.2737 3.58649V3.58649C15.4462 2.85399 14.1821 2.93065 13.4496 3.75815C13.4496 3.75815 9.80873 7.87065 8.54623 9.29815C7.28206 10.7248 8.20873 12.6957 8.20873 12.6957C8.20873 12.6957 10.2954 13.3565 11.5404 11.9498C12.7862 10.5432 16.4454 6.41065 16.4454 6.41065C17.1779 5.58315 17.1004 4.31899 16.2737 3.58649Z" stroke="#130F26" stroke-width="1.25" stroke-linecap="round" stroke-linejoin="round"/>
<path id="Stroke 5" d="M12.5076 4.83405L15.5034 7.48655" stroke="#130F26" stroke-width="1.25" stroke-linecap="round" stroke-linejoin="round"/>
</g>
</g>
</svg>
